<svg id="Layer_1" data-name="Layer 1" xmlns="http://www.w3.org/2000/svg" viewBox="0 0 334.25 368.26">
  <defs>
    <style>
      .cls-1 {
        fill: #2b1c4f;
      }

      .cls-2 {
        fill: #bb8e4f;
      }

      .cls-3 {
        fill: #f9b5a9;
      }

      .cls-4 {
        fill: none;
      }

      .cls-5 {
        fill: #f16d97;
      }

      .cls-6 {
        fill: #e5569f;
      }

      .cls-7 {
        fill: #fff;
      }

      .cls-8 {
        fill: #b8307a;
      }

      .cls-9 {
        fill: #ecd6e8;
      }

      .cls-10 {
        fill: #dab4d5;
      }
    </style>
  </defs>
  <title>logo</title>
  <g>
    <path class="cls-1" d="M327.82,165.34a36.86,36.86,0,0,0-4.36-5.62A164.09,164.09,0,0,0,260.9,69.88c-1.13-.81-2.26-1.6-3.4-2.38l.84-3.57h0l5.15-21.82h0L268,22.82h0l3.44-14.6A6.52,6.52,0,0,0,267.3.44a6.51,6.51,0,0,0-8.23,3.2L233.2,53.76A164.52,164.52,0,0,0,31,107.37,164.65,164.65,0,0,0,164.53,368.26a165.66,165.66,0,0,0,26.69-2.17A164.54,164.54,0,0,0,329.38,207a41.57,41.57,0,0,0-1.56-41.66Z"/>
    <path class="cls-2" d="M256.08,73.52l-1.64,7a23.23,23.23,0,0,1,8.86,6.81c2.56,3.3,3.87,7.11,5.13,10.79a42.67,42.67,0,0,0,3,7.27c3.52,6.24,10.05,10.19,16.38,14,1.48.9,3,1.83,4.48,2.77C302.46,128.69,308,136,308.74,144c.19,1.95.21,3.75.23,5.35V150a44.24,44.24,0,0,1,6.56,3.31,157.86,157.86,0,0,0-58-78.75C257.07,74.19,256.57,73.86,256.08,73.52Z"/>
    <path class="cls-2" d="M323.25,215.63a41.76,41.76,0,0,1-8.33,6.94c-.63.4-1.29.79-2,1.16a22.38,22.38,0,0,1-2,6.62v.37a72.44,72.44,0,0,1-.29,8.64c-.75,7-3.89,12.91-6.92,18.67-1.48,2.81-2.87,5.46-4,8.22a88.23,88.23,0,0,0-3.14,9.61c-1.84,6.46-3.73,13.14-8.76,19.2a73.24,73.24,0,0,1-10.13,9.46c-2.11,1.72-4.29,3.51-6.24,5.38-2.34,2.23-4.44,4.65-6.67,7.21a95.77,95.77,0,0,1-8.41,8.86c-4.16,3.71-12.59,9.67-22.32,8-.85-.15-1.67-.35-2.46-.55a12.8,12.8,0,0,0-4-.59c-2.1.18-4.12,1.73-6.36,3.59-6.22,5.15-13.52,11-21.46,15.08-6.84,3.51-13.25,5.25-19.44,5.25a32.63,32.63,0,0,1-6-.56,59.23,59.23,0,0,1-11.92-4,57,57,0,0,0-10.21-3.56c-7.16-1.49-15.12-.12-22.81,1.21-8.43,1.46-17.07,2.94-25.08.83a157.23,157.23,0,0,0,60.09,11.91,161.26,161.26,0,0,0,25.93-2.11,159.09,159.09,0,0,0,133-144.8Z"/>
    <path class="cls-2" d="M96.39,347.08c-5.14-3.42-8.64-8.45-12-13.34-3.53-5.09-6.86-9.91-11.76-12.57a37.58,37.58,0,0,0-8.66-3c-3.62-.93-7.36-1.9-10.77-3.95-9.07-5.47-11.82-15.58-14.47-25.36-1.92-7.05-3.9-14.35-8.26-19.5a47.06,47.06,0,0,0-5.38-5.11c-3.12-2.67-6.34-5.43-8.46-9.29-4.4-8-2.33-16.72-.32-25.15a64.68,64.68,0,0,0,2.19-13c.13-5.63-1.48-11.15-3.19-17s-3.49-11.93-3.43-18.31c.11-11.5,5.66-21.17,11-30.51a106,106,0,0,0,7.7-15.2,41.46,41.46,0,0,0,1.75-6.8c.91-4.66,1.86-9.47,6.12-13.68,3.64-3.6,7.9-6.25,12-8.81s8.12-5.06,11.36-8.38c2.45-2.5,4.85-5.22,7.18-7.85,6.17-7,12.56-14.22,21-19.08,9.54-5.49,20.32-7,30.74-8.46,1.66-.23,3.38-.47,5-.72a91.48,91.48,0,0,0,17.41-4,51,51,0,0,0,8.46-4.35,63.39,63.39,0,0,1,7.85-4.18,20.22,20.22,0,0,1,11.89-1.53,31.39,31.39,0,0,1,9.26,4,31.34,31.34,0,0,0,6.65,3.16,67.45,67.45,0,0,0,8.17,1.65,54.07,54.07,0,0,1,12.18,3c4.43,1.81,8.15,4.58,11.75,7.26,1.59,1.18,3.09,2.29,4.65,3.34.13.08.26.15.38.24l6.11-11.84a157.12,157.12,0,0,0-65.53-14.27,160.12,160.12,0,0,0-25.93,2.11A158.94,158.94,0,0,0,71.87,332.57,160.05,160.05,0,0,0,96.39,347.08Z"/>
    <path class="cls-3" d="M21.63,252.22c1.62,2.95,4.32,5.25,7.17,7.7a51.77,51.77,0,0,1,6,5.76c5.17,6.12,7.33,14,9.41,21.7,2.47,9.09,4.8,17.67,11.9,21.95,2.69,1.62,5.87,2.44,9.24,3.31a42.74,42.74,0,0,1,10,3.49c6.1,3.32,10,8.93,13.73,14.35,3.31,4.79,6.44,9.31,10.88,12.11,8,5.08,17.94,3.37,28.42,1.56a100.83,100.83,0,0,1,16.94-1.94,39.35,39.35,0,0,1,8,.77,61.68,61.68,0,0,1,11.25,3.88,54.5,54.5,0,0,0,10.76,3.66c14.94,2.78,29-7.64,42.2-18.56,2.31-1.91,5.47-4.53,9.52-4.88a17.42,17.42,0,0,1,5.87.74c.73.18,1.42.35,2.09.46,5.36,1,11.75-1.46,17.51-6.59a91.22,91.22,0,0,0,7.89-8.34c2.22-2.55,4.51-5.18,7-7.59,2.12-2,4.39-3.88,6.58-5.68a65.92,65.92,0,0,0,9.34-8.69c4.26-5.12,5.92-10.94,7.67-17.1a90.08,90.08,0,0,1,3.35-10.22c1.24-3,2.76-5.91,4.24-8.71,2.91-5.53,5.66-10.75,6.29-16.62.05-.41.07-.81.11-1.22-1.89,7.89-6.85,14.69-9.93,22.15-3.92,9.5-4.33,19.21-11.24,27.54-4.56,5.48-10.69,9.4-15.84,14.33s-9.36,10.92-14.72,15.69-12.47,8.38-19.54,7.14c-2.36-.41-4.68-1.36-7.07-1.15-3,.26-5.49,2.25-7.79,4.16-12.64,10.48-27.57,21.8-43.71,18.8-7.52-1.4-14.18-5.84-21.66-7.41-17.72-3.7-38,8.92-53.29-.75-10-6.34-13.57-20.2-24-25.87-5.91-3.22-13.19-3.27-19-6.74C43.17,296.89,46.36,274.6,35.7,262a35.54,35.54,0,0,0-3.63-3.63,2.91,2.91,0,0,1-2,.81,2.84,2.84,0,0,1-1.34-.34A2.87,2.87,0,0,1,27.56,255l.19-.35a24.53,24.53,0,0,1-5.31-6.28,18.83,18.83,0,0,1-2.2-9.52C19.44,243.66,19.43,248.21,21.63,252.22Z"/>
    <path class="cls-3" d="M18.13,177.68c0-.66,0-1.32.09-2a32,32,0,0,0-.62,5.91c-.06,5.52,1.52,10.93,3.19,16.65,1.75,6,3.56,12.17,3.42,18.67a39.52,39.52,0,0,0,.41-4.59C24.89,200.55,18,189.49,18.13,177.68Z"/>
    <g>
      <path class="cls-4" d="M271.58,120,263,115.72a2.86,2.86,0,0,0-2.64,5.07s8.74,4.32,8.74,4.32a2.87,2.87,0,0,0,2.53-5.15Z"/>
      <path class="cls-5" d="M285.39,125.16c-7.46-4.78-16.24-8.91-20.78-16.94-2-3.57-3-7.68-4.54-11.47-.27.59-.51,1.2-.76,1.81-.68,1.65-1.33,3.32-1.93,5-1,2.78-1.93,5.6-2.94,8.38a54,54,0,0,1-3,6.61c.59.4,1.16.81,1.72,1.22,6.48,4.8,9.59,7.45,13.52,10.79,1.22,1,2.51,2.14,4,3.39,1.68,1.41,3.15,2.73,4.44,3.89,3.72,3.34,6.18,5.55,10.22,6.89l-1-4a2.87,2.87,0,0,1,5.55-1.43l1.72,6.67.69.08a65.92,65.92,0,0,1,7.72,1.19c0-1-.07-2.15-.18-3.31C299.05,135.78,292.27,129.58,285.39,125.16Zm-12.5-1.36a2.88,2.88,0,0,1-3.84,1.31s-8.7-4.29-8.74-4.32a2.86,2.86,0,0,1,2.64-5.07l8.63,4.24A2.87,2.87,0,0,1,272.89,123.8Z"/>
    </g>
    <g>
      <path class="cls-4" d="M72.66,120.05A2.86,2.86,0,0,0,69,118.33l-8.81,3.22a2.86,2.86,0,1,0,2,5.38L71,123.72A2.85,2.85,0,0,0,72.66,120.05Z"/>
      <path class="cls-4" d="M68.13,156.09l-7-15.23A2.87,2.87,0,1,0,56,143.25l7,15.23a2.87,2.87,0,0,0,2.61,1.67,2.81,2.81,0,0,0,1.19-.26A2.86,2.86,0,0,0,68.13,156.09Z"/>
      <path class="cls-4" d="M40.93,176.56l-7.08,6.95a2.86,2.86,0,0,0,2,4.91,2.82,2.82,0,0,0,2-.82L45,180.65a2.87,2.87,0,1,0-4-4.09Z"/>
      <path class="cls-4" d="M63.92,244.74a2.87,2.87,0,0,0,3.8-4.29L56,230.07a2.87,2.87,0,0,0-3.8,4.29Z"/>
      <path class="cls-4" d="M71.63,275.26l-11,4.83a2.87,2.87,0,0,0,1.15,5.5,2.74,2.74,0,0,0,1.15-.25l11-4.83a2.87,2.87,0,1,0-2.31-5.25Z"/>
      <path class="cls-4" d="M50.36,152.43a2.87,2.87,0,0,0-5.69-.72l-1.08,8.56a2.86,2.86,0,0,0,2.48,3.2l.36,0a2.87,2.87,0,0,0,2.84-2.5Z"/>
      <path class="cls-4" d="M61.51,258.14a2.88,2.88,0,0,0-2.3-3.34l-7.13-1.31a2.87,2.87,0,0,0-1,5.64l7.13,1.31a3.15,3.15,0,0,0,.52.05A2.88,2.88,0,0,0,61.51,258.14Z"/>
      <path class="cls-4" d="M129,88.62,123,95.21a2.87,2.87,0,0,0,4.21,3.89l6.09-6.59A2.87,2.87,0,1,0,129,88.62Z"/>
      <path class="cls-4" d="M161.33,56.33l.46-.19-.3.11Z"/>
      <path class="cls-4" d="M101,111.19a2.86,2.86,0,1,0-5.67.81L97,123.8a2.88,2.88,0,0,0,2.84,2.47l.41,0a2.88,2.88,0,0,0,2.43-3.25Z"/>
      <path class="cls-4" d="M173.53,64.5a2.87,2.87,0,0,0-4,.65l-3.84,5.33a2.87,2.87,0,0,0,.65,4A2.82,2.82,0,0,0,168,75a2.86,2.86,0,0,0,2.33-1.19l3.84-5.33A2.86,2.86,0,0,0,173.53,64.5Z"/>
      <path class="cls-4" d="M78.87,209.25h0A2.86,2.86,0,0,0,76,212.14l.13,16.09A2.87,2.87,0,0,0,79,231.08h0a2.87,2.87,0,0,0,2.84-2.89l-.13-16.1A2.86,2.86,0,0,0,78.87,209.25Z"/>
      <path class="cls-4" d="M114.42,77.32l-4.14,4.45a2.87,2.87,0,1,0,4.2,3.9l4.13-4.44a2.87,2.87,0,0,0-4.19-3.91Z"/>
      <path class="cls-4" d="M88.35,102.18a2.85,2.85,0,0,0,1.64-.52l9.43-6.58a2.87,2.87,0,1,0-3.28-4.7L86.71,97a2.87,2.87,0,0,0,1.64,5.22Z"/>
      <path class="cls-4" d="M59,187.79a2.87,2.87,0,0,0-1.26,3.85l3.59,7.07a2.86,2.86,0,1,0,5.11-2.59l-3.59-7.07A2.87,2.87,0,0,0,59,187.79Z"/>
      <path class="cls-4" d="M80.13,178.14a2.86,2.86,0,0,0-3.34,2.3l-1.23,6.7a2.87,2.87,0,0,0,2.3,3.34,3.15,3.15,0,0,0,.52.05,2.87,2.87,0,0,0,2.82-2.35l1.23-6.71A2.85,2.85,0,0,0,80.13,178.14Z"/>
      <path class="cls-4" d="M174.45,283l-4.93,3.89a2.87,2.87,0,1,0,3.56,4.5l4.92-3.89a2.87,2.87,0,1,0-3.55-4.5Z"/>
      <path class="cls-4" d="M190.2,301.64l-8.1,8.62a2.87,2.87,0,1,0,4.18,3.92l8.1-8.62a2.87,2.87,0,1,0-4.18-3.92Z"/>
      <path class="cls-4" d="M235.12,262.43a2.86,2.86,0,0,0-3.92-1L221.6,267a2.87,2.87,0,0,0,1.45,5.34,2.85,2.85,0,0,0,1.45-.39l9.6-5.62A2.87,2.87,0,0,0,235.12,262.43Z"/>
      <path class="cls-4" d="M244.16,281.89a2.87,2.87,0,0,0-4,.6l-5.92,8a2.85,2.85,0,0,0,.59,4,2.88,2.88,0,0,0,1.71.57,2.84,2.84,0,0,0,2.3-1.16l5.93-8A2.87,2.87,0,0,0,244.16,281.89Z"/>
      <path class="cls-4" d="M262.29,275.47a2.87,2.87,0,0,0-5.55,1.44l2,7.74a2.86,2.86,0,0,0,2.77,2.15,2.55,2.55,0,0,0,.72-.1,2.87,2.87,0,0,0,2.06-3.49Z"/>
      <path class="cls-4" d="M208.54,282.31l-9.93-4.45a2.87,2.87,0,1,0-2.35,5.23l9.93,4.45a2.91,2.91,0,0,0,1.18.25,2.87,2.87,0,0,0,1.17-5.48Z"/>
      <path class="cls-4" d="M121.16,270.84a2.85,2.85,0,0,0-3.82-1.35l-7.51,3.58a2.87,2.87,0,1,0,2.47,5.18l7.51-3.59A2.87,2.87,0,0,0,121.16,270.84Z"/>
      <path class="cls-4" d="M151.85,293.25a2.87,2.87,0,0,0-4.41,3.66l5.63,6.78a2.84,2.84,0,0,0,2.2,1,2.81,2.81,0,0,0,1.83-.66,2.87,2.87,0,0,0,.38-4Z"/>
      <path class="cls-4" d="M89.47,141.32a2.86,2.86,0,0,0-4,.78l-7.42,11a2.87,2.87,0,0,0,4.75,3.21l7.42-11A2.86,2.86,0,0,0,89.47,141.32Z"/>
      <path class="cls-4" d="M89.15,249.41h0a2.85,2.85,0,0,0-2.86,2.83l-.17,16.85A2.87,2.87,0,0,0,88.93,272h0a2.87,2.87,0,0,0,2.87-2.83L92,252.3A2.87,2.87,0,0,0,89.15,249.41Z"/>
      <path class="cls-4" d="M137.91,277.68a2.88,2.88,0,0,0-3.18,2.52l-1.61,13.93a2.87,2.87,0,0,0,2.52,3.17,1.83,1.83,0,0,0,.33,0,2.86,2.86,0,0,0,2.85-2.53l1.61-13.93A2.88,2.88,0,0,0,137.91,277.68Z"/>
      <path class="cls-4" d="M119.12,290.22a2.87,2.87,0,1,0-5.59,1.26l2.45,10.9a2.87,2.87,0,0,0,2.8,2.24,2.76,2.76,0,0,0,.63-.07,2.87,2.87,0,0,0,2.16-3.43Z"/>
      <path class="cls-3" d="M43.84,123c3.54-8.1,13.54-11.85,20.31-16.71C71.48,101,76.77,93.36,83,86.93c6.61-6.79,14.06-12,23.25-14.6,9.4-2.7,19.25-3.24,28.82-5.06a53.75,53.75,0,0,0,14.66-4.58c3.9-2,7.52-4.65,11.58-6.36l.16-.08.3-.11.66-.27c9.34-3.43,15.58,3.07,23.72,5.81a21.9,21.9,0,0,0,2.31.66c4.92,1.11,10,1.41,14.83,3a37.82,37.82,0,0,1,12.21,7.05l.47.34,1.49.06L216,71.7c-3.47-2.58-6.74-5-10.5-6.56a49.24,49.24,0,0,0-10.92-2.6,73.65,73.65,0,0,1-8.86-1.8,36.14,36.14,0,0,1-7.89-3.69,26.69,26.69,0,0,0-7.57-3.37,14.74,14.74,0,0,0-8.51,1.19,58.35,58.35,0,0,0-7.15,3.83,55.34,55.34,0,0,1-9.44,4.81,96.18,96.18,0,0,1-18.5,4.23l-5.1.73c-9.89,1.38-20.1,2.82-28.68,7.75-7.65,4.4-13.46,11-19.6,17.91-2.37,2.68-4.82,5.45-7.36,8.05-3.74,3.83-8.16,6.58-12.44,9.24-4,2.51-7.83,4.88-11,8-3,3-3.71,6.55-4.53,10.7-.12.61-.24,1.21-.37,1.83.29,1.23.56,2.46.8,3.7a61.8,61.8,0,0,1,.16,6.44c.68-2.12,1.65-5.18,2.14-6.74C41.94,131.32,42.12,126.93,43.84,123Z"/>
    </g>
    <path class="cls-5" d="M256.22,90.3c.31.33.6.68.88,1s.55.76.81,1.15c-.26-.39-.52-.78-.81-1.15S256.53,90.63,256.22,90.3Z"/>
    <path class="cls-5" d="M258.66,93.74c-.17-.31-.35-.61-.54-.91C258.31,93.13,258.49,93.43,258.66,93.74Z"/>
    <path class="cls-5" d="M260,96.63c-.36-.88-.75-1.74-1.19-2.57C259.27,94.89,259.66,95.75,260,96.63Z"/>
    <g>
      <path class="cls-4" d="M252.81,87.4c.4.27.77.57,1.14.86A14.16,14.16,0,0,0,252.81,87.4Z"/>
      <path class="cls-3" d="M303,144.54c-.58-6.12-5.24-12-13.85-17.55-1.41-.91-2.84-1.78-4.36-2.7-7-4.21-14.15-8.56-18.4-16.1A47.53,47.53,0,0,1,263,100c-1.17-3.4-2.27-6.6-4.24-9.15a17.13,17.13,0,0,0-5.68-4.6l-.28,1.18a14.16,14.16,0,0,1,1.14.86,16.88,16.88,0,0,1,2.27,2,20.94,20.94,0,0,1,3.8,6.33.54.54,0,0,1,.05.11c-.27.6-.51,1.21-.76,1.82h0c.25-.61.49-1.22.76-1.81,1.54,3.79,2.52,7.9,4.54,11.47,4.54,8,13.32,12.16,20.78,16.94,6.88,4.42,13.66,10.62,14.43,18.76.11,1.16.15,2.26.18,3.31,1.09.24,2.16.5,3.21.79C303.19,146.89,303.15,145.75,303,144.54Z"/>
      <path class="cls-6" d="M260,96.63a20.94,20.94,0,0,0-3.8-6.33,16.88,16.88,0,0,0-2.27-2c-.37-.29-.74-.59-1.14-.86L252,90.7l-5.82,24.68a58.74,58.74,0,0,1,5.22,3.16,54,54,0,0,0,3-6.61c1-2.78,1.94-5.6,2.94-8.38.6-1.67,1.25-3.34,1.93-5,.25-.61.49-1.22.76-1.82A.54.54,0,0,0,260,96.63Z"/>
    </g>
    <path class="cls-7" d="M86,101a2.85,2.85,0,0,0,4,.71l9.43-6.58a2.87,2.87,0,1,0-3.28-4.7L86.71,97A2.86,2.86,0,0,0,86,101Z"/>
    <path class="cls-7" d="M101,111.19a2.86,2.86,0,1,0-5.67.81L97,123.8a2.88,2.88,0,0,0,2.84,2.47l.41,0a2.88,2.88,0,0,0,2.43-3.25Z"/>
    <path class="cls-7" d="M89.47,141.32a2.86,2.86,0,0,0-4,.78l-7.42,11a2.87,2.87,0,0,0,4.75,3.21l7.42-11A2.86,2.86,0,0,0,89.47,141.32Z"/>
    <path class="cls-7" d="M40.93,176.56l-7.08,6.95a2.86,2.86,0,0,0,2,4.91,2.82,2.82,0,0,0,2-.82L45,180.65a2.87,2.87,0,1,0-4-4.09Z"/>
    <path class="cls-7" d="M59,187.79a2.87,2.87,0,0,0-1.26,3.85l3.59,7.07a2.86,2.86,0,1,0,5.11-2.59l-3.59-7.07A2.87,2.87,0,0,0,59,187.79Z"/>
    <path class="cls-7" d="M63.92,244.74a2.87,2.87,0,0,0,3.8-4.29L56,230.07a2.87,2.87,0,0,0-3.8,4.29Z"/>
    <path class="cls-7" d="M129,88.62,123,95.21a2.87,2.87,0,0,0,4.21,3.89l6.09-6.59A2.87,2.87,0,1,0,129,88.62Z"/>
    <path class="cls-7" d="M173.53,64.5a2.87,2.87,0,0,0-4,.65l-3.84,5.33a2.87,2.87,0,0,0,.65,4A2.82,2.82,0,0,0,168,75a2.86,2.86,0,0,0,2.33-1.19l3.84-5.33A2.86,2.86,0,0,0,173.53,64.5Z"/>
    <path class="cls-7" d="M286.38,137.23a2.87,2.87,0,0,0-2.06,3.49l1,4a30.64,30.64,0,0,0,6.24,1.24l-1.72-6.67A2.87,2.87,0,0,0,286.38,137.23Z"/>
    <path class="cls-7" d="M221.6,267a2.87,2.87,0,0,0,1.45,5.34,2.85,2.85,0,0,0,1.45-.39l9.6-5.62a2.87,2.87,0,0,0-2.9-5Z"/>
    <path class="cls-7" d="M258.75,284.65a2.86,2.86,0,0,0,2.77,2.15,2.55,2.55,0,0,0,.72-.1,2.87,2.87,0,0,0,2.06-3.49l-2-7.74a2.87,2.87,0,0,0-5.55,1.44Z"/>
    <path class="cls-7" d="M208.54,282.31l-9.93-4.45a2.87,2.87,0,1,0-2.35,5.23l9.93,4.45a2.91,2.91,0,0,0,1.18.25,2.87,2.87,0,0,0,1.17-5.48Z"/>
    <path class="cls-7" d="M137.91,277.68a2.88,2.88,0,0,0-3.18,2.52l-1.61,13.93a2.87,2.87,0,0,0,2.52,3.17,1.83,1.83,0,0,0,.33,0,2.86,2.86,0,0,0,2.85-2.53l1.61-13.93A2.88,2.88,0,0,0,137.91,277.68Z"/>
    <g>
      <path class="cls-4" d="M153.07,303.69a2.84,2.84,0,0,0,2.2,1,2.81,2.81,0,0,0,1.83-.66,2.87,2.87,0,0,0,.38-4l-5.63-6.77a2.87,2.87,0,0,0-4.41,3.66Z"/>
      <path class="cls-4" d="M171.3,292a2.86,2.86,0,0,0,1.78-.62l4.92-3.89a2.87,2.87,0,1,0-3.55-4.5l-4.93,3.89A2.87,2.87,0,0,0,171.3,292Z"/>
      <path class="cls-4" d="M196.26,283.09l9.93,4.45a2.91,2.91,0,0,0,1.18.25,2.87,2.87,0,0,0,1.17-5.48l-9.93-4.45a2.87,2.87,0,1,0-2.35,5.23Z"/>
      <path class="cls-4" d="M223.05,272.36a2.85,2.85,0,0,0,1.45-.39l9.6-5.62a2.87,2.87,0,0,0-2.9-5L221.6,267a2.87,2.87,0,0,0,1.45,5.34Z"/>
      <path class="cls-4" d="M135.64,297.3a1.83,1.83,0,0,0,.33,0,2.86,2.86,0,0,0,2.85-2.53l1.61-13.93a2.87,2.87,0,0,0-5.7-.66l-1.61,13.93A2.87,2.87,0,0,0,135.64,297.3Z"/>
      <path class="cls-4" d="M184.19,315.09a2.87,2.87,0,0,0,2.09-.91l8.1-8.62a2.87,2.87,0,1,0-4.18-3.92l-8.1,8.62a2.87,2.87,0,0,0,2.09,4.83Z"/>
      <path class="cls-4" d="M115.7,288.05a2.86,2.86,0,0,0-2.17,3.43l2.45,10.9a2.87,2.87,0,0,0,2.8,2.24,2.76,2.76,0,0,0,.63-.07,2.87,2.87,0,0,0,2.16-3.43l-2.45-10.9A2.87,2.87,0,0,0,115.7,288.05Z"/>
      <path class="cls-4" d="M166.34,74.48A2.82,2.82,0,0,0,168,75a2.86,2.86,0,0,0,2.33-1.19l3.84-5.33a2.87,2.87,0,1,0-4.65-3.35l-3.84,5.33A2.87,2.87,0,0,0,166.34,74.48Z"/>
      <path class="cls-4" d="M88.93,272h0a2.87,2.87,0,0,0,2.87-2.83L92,252.3a2.87,2.87,0,0,0-2.84-2.89h0a2.85,2.85,0,0,0-2.86,2.83l-.17,16.85A2.87,2.87,0,0,0,88.93,272Z"/>
      <path class="cls-4" d="M111.06,278.53a2.87,2.87,0,0,0,1.24-.28l7.51-3.59a2.86,2.86,0,0,0-2.47-5.17l-7.51,3.58a2.87,2.87,0,0,0,1.23,5.46Z"/>
      <path class="cls-4" d="M234.82,294.49a2.88,2.88,0,0,0,1.71.57,2.84,2.84,0,0,0,2.3-1.16l5.93-8a2.87,2.87,0,0,0-4.61-3.41l-5.92,8A2.85,2.85,0,0,0,234.82,294.49Z"/>
      <path class="cls-4" d="M39.53,226.68c1.29-4,1.57-8.58,2.33-12.7.36-2,.92-4.5-1.69-5.23-3.45-1-3.8,3.21-4.18,5.5h0l-2.1,11.41a2.86,2.86,0,0,0,2.3,3.34,3.05,3.05,0,0,0,.52.05,2.83,2.83,0,0,0,.65-.09,3.19,3.19,0,0,0,1.17-.69A3.48,3.48,0,0,0,39.53,226.68Z"/>
      <path class="cls-4" d="M98.27,314.17v0Z"/>
      <path class="cls-4" d="M125.05,100a2.88,2.88,0,0,0,2.11-.92l6.09-6.59A2.87,2.87,0,1,0,129,88.62L123,95.21a2.86,2.86,0,0,0,2.1,4.81Z"/>
      <path class="cls-4" d="M130.8,324.24c1.52-1.33,4.9-3.34,4.65-5.69-.45-4.23-4.47-2.09-6.3-.49L122,324.34c-1.54,1.35-4.08,2.89-4.7,4.92l-.26,0,.31.09a2.84,2.84,0,0,0,.66,2.33,2.89,2.89,0,0,0,2.16,1,2.86,2.86,0,0,0,1.88-.71l2.41-2.11h0C126.6,328,128.68,326.1,130.8,324.24Z"/>
      <path class="cls-4" d="M234.59,305.59c-1.17-.58-2.69-1.65-4.05-1.56a2.88,2.88,0,0,0-.92,5.49,1.52,1.52,0,0,0-.2.06l.25,0,9.8,4.82a2.86,2.86,0,1,0,2.53-5.14l-3.51-1.73h0C237.3,307.4,235.63,306.1,234.59,305.59Z"/>
      <path class="cls-4" d="M161.49,319.81c-3.54-1.75-6.93,4.62-9.79,5.66h0l-3.44,2.72a2.86,2.86,0,0,0,1.78,5.11,2.91,2.91,0,0,0,1.78-.61l7.93-6.27.14,0-.15,0C161.66,325,165.32,321.7,161.49,319.81Z"/>
      <path class="cls-4" d="M258.75,284.65a2.86,2.86,0,0,0,2.77,2.15,2.55,2.55,0,0,0,.72-.1,2.87,2.87,0,0,0,2.06-3.49l-2-7.74a2.87,2.87,0,0,0-5.55,1.44Z"/>
      <path class="cls-4" d="M207.63,306.15c-1.16,1.35-.4,3.42-1.27,4.79l-.08.12.06,0-1.94,10.57a2.87,2.87,0,0,0,2.3,3.33,2.35,2.35,0,0,0,.52.05,2.87,2.87,0,0,0,2.82-2.35L212.55,309l.25,0-.26-.06A2.88,2.88,0,0,0,207.63,306.15Z"/>
      <path class="cls-4" d="M84.12,294.53c1.15-1.5,3.28-3.4,2.44-5.48-1.21-3-4.16-1.61-5.59.18-2.51,3.15-5.13,6.35-7.43,9.63h0l-.42.53a2.87,2.87,0,0,0,4.53,3.51l2.4-3.09h0C81.44,298.11,82.76,296.29,84.12,294.53Z"/>
      <path class="cls-4" d="M46.07,163.47l.36,0a2.87,2.87,0,0,0,2.84-2.5l1.09-8.56a2.87,2.87,0,0,0-5.69-.72l-1.08,8.56A2.86,2.86,0,0,0,46.07,163.47Z"/>
      <path class="cls-4" d="M33.81,187.56a2.86,2.86,0,0,0,2,.86,2.82,2.82,0,0,0,2-.82L45,180.65a2.87,2.87,0,1,0-4-4.09l-7.08,6.95A2.86,2.86,0,0,0,33.81,187.56Z"/>
      <path class="cls-4" d="M63.92,244.74a2.87,2.87,0,0,0,3.8-4.29L56,230.07a2.87,2.87,0,0,0-3.8,4.29Z"/>
      <path class="cls-4" d="M59,187.79a2.87,2.87,0,0,0-1.26,3.85l3.59,7.07a2.86,2.86,0,1,0,5.11-2.59l-3.59-7.07A2.87,2.87,0,0,0,59,187.79Z"/>
      <path class="cls-4" d="M286.07,249.05a2.87,2.87,0,0,0-2.68,3l.07,1.06h0l.54,8.55a2.87,2.87,0,0,0,2.86,2.68h.19a2.85,2.85,0,0,0,2.67-3l-.61-9.61A2.86,2.86,0,0,0,286.07,249.05Z"/>
      <path class="cls-4" d="M62.92,158.48a2.87,2.87,0,0,0,2.61,1.67,2.81,2.81,0,0,0,1.19-.26,2.86,2.86,0,0,0,1.41-3.8l-7-15.23A2.87,2.87,0,1,0,56,143.25Z"/>
      <path class="cls-4" d="M260.05,255a2.85,2.85,0,0,0-1.79-3.63L245.33,247a2.87,2.87,0,1,0-1.84,5.43l12.93,4.38a2.37,2.37,0,0,0,.36.09l1.69-.17A2.85,2.85,0,0,0,260.05,255Z"/>
      <path class="cls-4" d="M285.13,277.51l-4.3-2.18a2.86,2.86,0,0,0-2.59,5.11l4.3,2.18a2.85,2.85,0,0,0,1.29.31,2.86,2.86,0,0,0,1.3-5.42Z"/>
      <path class="cls-4" d="M112.38,86.59a2.86,2.86,0,0,0,2.1-.92l4.13-4.44a2.87,2.87,0,0,0-4.19-3.91l-4.14,4.45a2.87,2.87,0,0,0,2.1,4.82Z"/>
      <path class="cls-4" d="M88.35,102.18a2.85,2.85,0,0,0,1.64-.52l9.43-6.58a2.87,2.87,0,1,0-3.28-4.7L86.71,97a2.87,2.87,0,0,0,1.64,5.22Z"/>
      <path class="cls-4" d="M78.87,209.25h0A2.86,2.86,0,0,0,76,212.14l.13,16.09A2.87,2.87,0,0,0,79,231.08h0a2.87,2.87,0,0,0,2.84-2.89l-.13-16.1A2.86,2.86,0,0,0,78.87,209.25Z"/>
      <path class="cls-4" d="M61.16,127.11a2.87,2.87,0,0,0,1-.18L71,123.72a2.87,2.87,0,0,0-2-5.39l-8.81,3.22a2.87,2.87,0,0,0,1,5.56Z"/>
      <path class="cls-4" d="M97.73,108.75A2.87,2.87,0,0,0,95.3,112L97,123.8a2.88,2.88,0,0,0,2.84,2.47l.41,0a2.88,2.88,0,0,0,2.43-3.25L101,111.19A2.87,2.87,0,0,0,97.73,108.75Z"/>
      <path class="cls-4" d="M61.51,258.14a2.88,2.88,0,0,0-2.3-3.34l-7.13-1.31a2.87,2.87,0,0,0-1,5.64l7.13,1.31a3.15,3.15,0,0,0,.52.05A2.88,2.88,0,0,0,61.51,258.14Z"/>
      <path class="cls-4" d="M77.86,190.48a3.15,3.15,0,0,0,.52.05,2.87,2.87,0,0,0,2.82-2.35l1.23-6.71a2.87,2.87,0,0,0-5.64-1l-1.23,6.7A2.87,2.87,0,0,0,77.86,190.48Z"/>
      <path class="cls-4" d="M71.63,275.26l-11,4.83a2.87,2.87,0,0,0,1.15,5.5,2.74,2.74,0,0,0,1.15-.25l11-4.83a2.87,2.87,0,1,0-2.31-5.25Z"/>
      <path class="cls-4" d="M78.85,157.09a2.87,2.87,0,0,0,4-.77l7.42-11a2.86,2.86,0,1,0-4.75-3.2l-7.42,11A2.86,2.86,0,0,0,78.85,157.09Z"/>
      <path class="cls-5" d="M37,152.56c-3.23,10.1-8.23,19.87-8.08,30.73.14,10.45,4.72,20.39,7,30.48,0,.16.07.31.1.48.38-2.29.73-6.46,4.18-5.5,2.61.73,2,3.27,1.69,5.23-.76,4.12-1,8.72-2.33,12.7a3.48,3.48,0,0,1-1,1.59,3.19,3.19,0,0,1-1.17.69,88.32,88.32,0,0,0,1.44,15.56,37,37,0,0,0,2.13,6.8,53.59,53.59,0,0,0,3.67,6.58,83.15,83.15,0,0,1,6.79,13.33c2.76,7.14,3.18,16,8.7,21.83,3.56,3.74,8.44,5,13.4,5.79h.05c2.3-3.28,4.92-6.48,7.43-9.63,1.43-1.79,4.38-3.2,5.59-.18.84,2.08-1.29,4-2.44,5.48-1.36,1.76-2.68,3.58-4.11,5.28h0c.24,0,.49.07.73.12,3.88.67,7.9,1.59,11.22,3.8a14.08,14.08,0,0,1,1.72,1.36,2.86,2.86,0,0,1,2.75.42l12.75,9.88a2.87,2.87,0,0,1-3.52,4.53l-7.43-5.76v0c.12.44.25.88.38,1.32a14.22,14.22,0,0,0,2.77,5.48,21.46,21.46,0,0,0,4.75,3.84,36.69,36.69,0,0,0,10.84,4.4l.26,0c.62-2,3.16-3.57,4.7-4.92l7.17-6.28c1.83-1.6,5.85-3.74,6.3.49.25,2.35-3.13,4.36-4.65,5.69-2.12,1.86-4.2,3.8-6.38,5.57h0a48.66,48.66,0,0,0,8.2-1.6,73.73,73.73,0,0,1,16.68-2.72c.79,0,1.56,0,2.34,0h0c2.86-1,6.25-7.41,9.79-5.66,3.83,1.89.17,5.2-1.77,6.6l.15,0a33.85,33.85,0,0,1,4.47,1.39c2.1.84,4.2,1.8,6.34,2.6a3,3,0,0,1,1.25-.24l12.31.57c4.26-1.91,7.83-5.6,10.86-9.09,3.36-3.87,6.74-8.11,11.18-10.63l.08-.12c.87-1.37.11-3.44,1.27-4.79a2.88,2.88,0,0,1,4.91,2.74l.26.06c4.66-.44,9.21,1.21,13.89.91.91-.06,1.82-.16,2.73-.28a1.52,1.52,0,0,1,.2-.06,2.88,2.88,0,0,1,.92-5.49c1.36-.09,2.88,1,4.05,1.56s2.71,1.81,3.87,1.91h0c.55-.19,1.1-.38,1.64-.59a44.1,44.1,0,0,0,11.73-6.62,52.32,52.32,0,0,0,9.89-10.8,42.54,42.54,0,0,1,4.84-6c1.73-1.64,3.7-3,5.52-4.5a16.37,16.37,0,0,0,4.32-5.29,39.35,39.35,0,0,0,2.47-6.65c1.32-4.64,2.2-9.48,4.36-13.83a84.27,84.27,0,0,1-9.6,2.87c-8.13,2.27-16.28,2.38-24.62,1.41-6.12-.72-12.31-1.53-18.38-2.56a51.24,51.24,0,0,1-9.13-2.23s-2.19,2.43-2.82,3.08a75.16,75.16,0,0,1-87.42,15.14A76.75,76.75,0,0,1,104.9,249c-7.34-9.54-12.51-21.16-15.63-32.74A101.87,101.87,0,0,1,87,176.64a115.19,115.19,0,0,1,11.91-37.73,119.28,119.28,0,0,1,22.48-30.34,122.36,122.36,0,0,1,14.88-12.39c1.7-1.2,2.88-1.51,2.88-3.68,0-1.69,0-3.38.07-5.06q.15-4,.6-8c.22-1.95.24-4.23,1.69-5.73,2.46-2.56,5.4-1,7.92.48,2.88,1.67,5.68,3.46,8.42,5.34,1.32.91,2.89,2.58,4.4,2.41s3.2-1.28,4.57-1.77a129,129,0,0,1,39.41-7.54c3.23-.11,6.49.11,9.71,0-.12-.11-.25-.21-.38-.31a37.82,37.82,0,0,0-12.21-7.05c-4.81-1.57-9.91-1.87-14.83-3a21.9,21.9,0,0,1-2.31-.66c-8.14-2.74-14.38-9.24-23.72-5.81l-.66.27-.46.19c-4.06,1.71-7.68,4.35-11.58,6.36a53.75,53.75,0,0,1-14.66,4.58c-9.57,1.82-19.42,2.36-28.82,5.06C97.08,75,89.63,80.14,83,86.93,76.77,93.36,71.48,101,64.15,106.3c-6.77,4.86-16.77,8.61-20.31,16.71-1.72,3.92-1.9,8.31-3.16,12.37-.41,1.3-1.15,3.63-1.78,5.6A36.17,36.17,0,0,1,37,152.56ZM258.8,273.42a2.86,2.86,0,0,1,3.49,2.05l2,7.74a2.87,2.87,0,0,1-2.06,3.49,2.55,2.55,0,0,1-.72.1,2.86,2.86,0,0,1-2.77-2.15l-2-7.74A2.86,2.86,0,0,1,258.8,273.42Zm-14.64,8.47a2.87,2.87,0,0,1,.6,4l-5.93,8a2.84,2.84,0,0,1-2.3,1.16,2.88,2.88,0,0,1-1.71-.57,2.85,2.85,0,0,1-.59-4l5.92-8A2.87,2.87,0,0,1,244.16,281.89ZM221.6,267l9.6-5.62a2.87,2.87,0,0,1,2.9,5L224.5,272a2.88,2.88,0,0,1-3.92-1A2.88,2.88,0,0,1,221.6,267ZM194.82,279.3a2.87,2.87,0,0,1,3.79-1.44l9.93,4.45a2.87,2.87,0,0,1-1.17,5.48,2.91,2.91,0,0,1-1.18-.25l-9.93-4.45A2.87,2.87,0,0,1,194.82,279.3Zm-12.72,31,8.1-8.62a2.87,2.87,0,1,1,4.18,3.92l-8.1,8.62a2.87,2.87,0,0,1-4.18-3.92Zm-12.58-23.39,4.93-3.89a2.87,2.87,0,1,1,3.55,4.5l-4.92,3.89a2.87,2.87,0,0,1-3.56-4.5Zm-21.71,6a2.87,2.87,0,0,1,4,.37l5.63,6.77a2.87,2.87,0,0,1-.38,4,2.81,2.81,0,0,1-1.83.66,2.84,2.84,0,0,1-2.2-1l-5.63-6.78A2.86,2.86,0,0,1,147.81,292.88Zm-14.69,1.25,1.61-13.93a2.87,2.87,0,0,1,5.7.66l-1.61,13.93a2.86,2.86,0,0,1-2.85,2.53,1.83,1.83,0,0,1-.33,0A2.87,2.87,0,0,1,133.12,294.13Zm-13.71,10.42a2.76,2.76,0,0,1-.63.07,2.87,2.87,0,0,1-2.8-2.24l-2.45-10.9a2.87,2.87,0,1,1,5.59-1.26l2.45,10.9A2.87,2.87,0,0,1,119.41,304.55Zm-9.58-31.48,7.51-3.58a2.86,2.86,0,0,1,2.47,5.17l-7.51,3.59a2.87,2.87,0,1,1-2.47-5.18ZM86.26,252.24a2.85,2.85,0,0,1,2.86-2.83h0A2.87,2.87,0,0,1,92,252.3l-.16,16.85A2.87,2.87,0,0,1,89,272h0a2.87,2.87,0,0,1-2.84-2.89ZM165.69,70.48l3.84-5.33a2.87,2.87,0,1,1,4.65,3.35l-3.84,5.33A2.86,2.86,0,0,1,168,75a2.82,2.82,0,0,1-1.67-.54A2.87,2.87,0,0,1,165.69,70.48ZM123,95.21,129,88.62a2.87,2.87,0,1,1,4.21,3.89l-6.09,6.59a2.88,2.88,0,0,1-2.11.92,2.86,2.86,0,0,1-2.1-4.81ZM110.28,81.77l4.14-4.45a2.87,2.87,0,0,1,4.19,3.91l-4.13,4.44a2.87,2.87,0,0,1-4.2-3.9ZM58.17,260.44,51,259.13a2.87,2.87,0,0,1,1-5.64l7.13,1.31a2.87,2.87,0,0,1-.52,5.69A3.15,3.15,0,0,1,58.17,260.44ZM79,231.08h0a2.87,2.87,0,0,1-2.87-2.85L76,212.14a2.86,2.86,0,0,1,2.85-2.89h0a2.86,2.86,0,0,1,2.86,2.84l.13,16.1A2.87,2.87,0,0,1,79,231.08ZM102.66,123a2.88,2.88,0,0,1-2.43,3.25l-.41,0A2.88,2.88,0,0,1,97,123.8L95.3,112a2.86,2.86,0,1,1,5.67-.81Zm-16-26,9.43-6.58a2.87,2.87,0,1,1,3.28,4.7L90,101.66A2.87,2.87,0,0,1,86.71,97Zm-8.63,56.15,7.42-11a2.86,2.86,0,1,1,4.75,3.2l-7.42,11a2.87,2.87,0,0,1-4.75-3.21Zm-2.52,34,1.23-6.7a2.87,2.87,0,0,1,5.64,1l-1.23,6.71a2.87,2.87,0,0,1-2.82,2.35,3.15,3.15,0,0,1-.52-.05A2.87,2.87,0,0,1,75.56,187.14Zm-.15,89.59a2.87,2.87,0,0,1-1.47,3.78l-11,4.83a2.74,2.74,0,0,1-1.15.25,2.87,2.87,0,0,1-1.15-5.5l11-4.83A2.87,2.87,0,0,1,75.41,276.73ZM60.18,121.55,69,118.33a2.87,2.87,0,0,1,2,5.39l-8.81,3.21a2.86,2.86,0,1,1-2-5.38Zm-2.82,17.9a2.87,2.87,0,0,1,3.8,1.41l7,15.23a2.86,2.86,0,0,1-1.41,3.8,2.81,2.81,0,0,1-1.19.26,2.87,2.87,0,0,1-2.61-1.67l-7-15.23A2.86,2.86,0,0,1,57.36,139.45ZM65.13,200a2.86,2.86,0,0,1-3.85-1.26l-3.59-7.07a2.86,2.86,0,0,1,5.11-2.59l3.59,7.07A2.86,2.86,0,0,1,65.13,200ZM52,230.32a2.85,2.85,0,0,1,4-.25l11.72,10.38a2.87,2.87,0,0,1-3.8,4.29L52.2,234.36A2.86,2.86,0,0,1,52,230.32Zm-8.37-70,1.08-8.56a2.87,2.87,0,0,1,5.69.72L49.27,161a2.87,2.87,0,0,1-2.84,2.5l-.36,0A2.86,2.86,0,0,1,43.59,160.27Zm-2.66,16.29a2.87,2.87,0,1,1,4,4.09l-7.09,6.95a2.82,2.82,0,0,1-2,.82,2.86,2.86,0,0,1-2-4.91Z"/>
      <path class="cls-5" d="M256.78,256.9a2.6,2.6,0,0,0,.56.07,2.94,2.94,0,0,0,1.13-.24Z"/>
      <polygon class="cls-5" points="35.99 214.25 35.99 214.25 35.99 214.25 35.99 214.25"/>
      <path class="cls-8" d="M301.59,239.44c-9.91,4.79-24.5,5.37-35.5,1.41-6.9-2.49-13-6.76-20.3-8.16a38,38,0,0,0-11.57-.55,75.09,75.09,0,0,1-6.64,12.54l0,0a74.67,74.67,0,0,1-6.07,8,51.24,51.24,0,0,0,9.13,2.23c6.07,1,12.26,1.84,18.38,2.56,8.34,1,16.49.86,24.62-1.41a84.27,84.27,0,0,0,9.6-2.87c-2.16,4.35-3,9.19-4.36,13.83a39.35,39.35,0,0,1-2.47,6.65,16.37,16.37,0,0,1-4.32,5.29c-1.82,1.53-3.79,2.86-5.52,4.5a42.54,42.54,0,0,0-4.84,6,52.32,52.32,0,0,1-9.89,10.8,44.1,44.1,0,0,1-11.73,6.62c-.54.21-1.09.4-1.66.59l3.51,1.73a2.86,2.86,0,1,1-2.53,5.14l-9.8-4.82-.25,0c-.91.12-1.82.22-2.73.28-4.68.3-9.23-1.35-13.89-.91l-.25,0L210,322.62a2.87,2.87,0,0,1-2.82,2.35,2.35,2.35,0,0,1-.52-.05,2.87,2.87,0,0,1-2.3-3.33L206.34,311l-.06,0c-4.44,2.52-7.82,6.76-11.18,10.63-3,3.49-6.6,7.18-10.86,9.09l2.64.12a2.87,2.87,0,0,1-.13,5.73h-.14l-15-.69a2.86,2.86,0,0,1-1-5.49c-2.14-.8-4.24-1.76-6.34-2.6a33.85,33.85,0,0,0-4.47-1.39l-.14,0-7.93,6.27a2.91,2.91,0,0,1-1.78.61,2.86,2.86,0,0,1-1.78-5.11l3.44-2.72c-.78,0-1.55,0-2.34,0a73.73,73.73,0,0,0-16.68,2.72,48.5,48.5,0,0,1-8.22,1.6L122,331.92a2.86,2.86,0,0,1-1.88.71,2.89,2.89,0,0,1-2.16-1,2.84,2.84,0,0,1-.66-2.33l-.31-.09a36.69,36.69,0,0,1-10.84-4.4,21.46,21.46,0,0,1-4.75-3.84,14.22,14.22,0,0,1-2.77-5.48c-.13-.44-.26-.88-.39-1.34L93,310.05a2.87,2.87,0,0,1,.77-4.95A14.08,14.08,0,0,0,92,303.74c-3.32-2.21-7.34-3.13-11.22-3.8l-.75-.13-2.4,3.09a2.87,2.87,0,1,1-4.53-3.51,4.91,4.91,0,0,0,.39-.54c-5-.79-9.84-2.05-13.4-5.79-5.52-5.79-5.94-14.69-8.7-21.83A83.15,83.15,0,0,0,44.6,257.9a53.59,53.59,0,0,1-3.67-6.58,37,37,0,0,1-2.13-6.8A88.32,88.32,0,0,1,37.36,229a2.83,2.83,0,0,1-.65.09,3.05,3.05,0,0,1-.52-.05,2.86,2.86,0,0,1-2.3-3.34L36,214.25c0-.17-.07-.32-.1-.48-2.23-10.09-6.81-20-6.95-30.48-.15-10.86,4.85-20.63,8.08-30.73A36.17,36.17,0,0,0,38.9,141c0-.33,0-.67,0-1a30.52,30.52,0,0,0-.5-4.29c-.24-1.24-.51-2.47-.8-3.7A38.7,38.7,0,0,1,36,137.87a112.51,112.51,0,0,1-8.1,16c-4.17,7.27-8.15,14.22-9.63,21.81,0,.65-.08,1.31-.09,2-.11,11.81,6.76,22.87,6.49,34.67a39.52,39.52,0,0,1-.41,4.59V217c-.11,4.77-1.25,9.54-2.34,14.16-.62,2.61-1.23,5.17-1.63,7.65a18.83,18.83,0,0,0,2.2,9.52,24.53,24.53,0,0,0,5.31,6.28l3.79-7.11a2.87,2.87,0,0,1,5.06,2.7l-4,7.46a2.76,2.76,0,0,1-.55.71A35.54,35.54,0,0,1,35.7,262c10.66,12.6,7.47,34.89,21.6,43.41,5.77,3.47,13,3.52,19,6.74,10.42,5.67,14,19.53,24,25.87,15.3,9.67,35.57-2.95,53.29.75,7.48,1.57,14.14,6,21.66,7.41,16.14,3,31.07-8.32,43.71-18.8,2.3-1.91,4.81-3.9,7.79-4.16,2.39-.21,4.71.74,7.07,1.15,7.07,1.24,14.18-2.36,19.54-7.14s9.53-10.73,14.72-15.69,11.28-8.85,15.84-14.33c6.91-8.33,7.32-18,11.24-27.54,3.08-7.46,8-14.26,9.93-22.15,0-.06,0-.13,0-.19A23.1,23.1,0,0,1,301.59,239.44ZM257.34,257a2.6,2.6,0,0,1-.56-.07,2.37,2.37,0,0,1-.36-.09l-12.93-4.38a2.87,2.87,0,1,1,1.84-5.43l12.93,4.39a2.86,2.86,0,0,1,.21,5.34A2.94,2.94,0,0,1,257.34,257Zm29.05,24.39a2.88,2.88,0,0,1-2.56,1.57,2.85,2.85,0,0,1-1.29-.31l-4.3-2.18a2.86,2.86,0,0,1,2.59-5.11l4.3,2.18A2.86,2.86,0,0,1,286.39,281.36Zm.66-17h-.19A2.87,2.87,0,0,1,284,261.7l-.54-8.55h0l-.07-1.06a2.87,2.87,0,0,1,5.72-.37l.61,9.61A2.85,2.85,0,0,1,287.05,264.37Z"/>
      <path class="cls-7" d="M170.68,330.45a2.86,2.86,0,0,0,1,5.49l15,.69h.14a2.87,2.87,0,0,0,.13-5.73l-2.64-.12-12.31-.57A3,3,0,0,0,170.68,330.45Z"/>
      <path class="cls-7" d="M105.7,319.93a2.87,2.87,0,1,0,3.52-4.53l-12.75-9.88A2.87,2.87,0,0,0,93,310.05l5.32,4.12h0Z"/>
    </g>
    <path class="cls-7" d="M71.63,275.26l-11,4.83a2.87,2.87,0,0,0,1.15,5.5,2.74,2.74,0,0,0,1.15-.25l11-4.83a2.87,2.87,0,1,0-2.31-5.25Z"/>
    <path class="cls-7" d="M278.24,280.44l4.3,2.18a2.85,2.85,0,0,0,1.29.31,2.86,2.86,0,0,0,1.3-5.42l-4.3-2.18a2.86,2.86,0,0,0-2.59,5.11Z"/>
    <path class="cls-7" d="M50.36,152.43a2.87,2.87,0,0,0-5.69-.72l-1.08,8.56a2.86,2.86,0,0,0,2.48,3.2l.36,0a2.87,2.87,0,0,0,2.84-2.5Z"/>
    <path class="cls-7" d="M32.62,257.66l4-7.46a2.87,2.87,0,0,0-5.06-2.7l-3.79,7.11-.19.35a2.87,2.87,0,0,0,1.19,3.88,2.84,2.84,0,0,0,1.34.34,2.91,2.91,0,0,0,2-.81A2.76,2.76,0,0,0,32.62,257.66Z"/>
    <path class="cls-7" d="M322.62,168.62c-7.52-11.91-21-15.53-30.92-16.47-11-1.05-15-4.69-20.68-9.75-1.31-1.18-2.67-2.41-4.27-3.74s-2.83-2.38-4.06-3.43c-1.86-1.58-3.54-3-5.47-4.58-2.05.64-4.08,1.29-6.06,1.93-6.51,2.1-9.18,3.93-20.12,1.12-3.12-.8-14.07-5.92-16.73-7.72a6.94,6.94,0,0,1-.71-.53c-3.62-2.24-6-4.71-7.25-7.54a47.89,47.89,0,0,1-6.88,1.79l-.1,0c-8.71,2-14.21-3.82-18.61-10.48a58.39,58.39,0,0,0-6.33-7.79A105.57,105.57,0,0,0,162.93,91a139.15,139.15,0,0,0-17-11.65c-1.08,8.86-2.87,34.72,11,49,5.9,6.09,2,15.56,1.82,16a3.07,3.07,0,0,1-2.83,1.87,3.12,3.12,0,0,1-1.19-.24l-.43-.23a170.28,170.28,0,0,0-11.7,28.17c-6.86,23-17.9,56.67-15.3,88.07a69,69,0,0,0,74.44.27,64.5,64.5,0,0,1-5.13-7.54,48.72,48.72,0,0,1-5.88-14.91c-.85-4.15-1.68-8.59-1.2-12.86-.74-.63-1.49-1.29-2.23-2a3.07,3.07,0,0,1,4.25-4.44c7.13,6.81,14.29,9.93,31.26,6.84l.06-.05c8.08-1,16-2.17,24.07-.63a40.56,40.56,0,0,1,6.52,1.83c1.64.62,3.13,1.29,4.59,2,2.31.63,4.61,1.27,6.92,1.86,1.66.43,3.45,1,5.17.5,1.26-.39,2.5-1.49,2.26-2.94-.16-1-4.76-8.93-4.76-8.93a49.81,49.81,0,0,1-3.95-3.33,3.07,3.07,0,1,1,4.18-4.49,47.56,47.56,0,0,0,3.65,3.05c1.47.1,2.93.15,4.39.25,3.34.23,6.66.46,10,.47a76.43,76.43,0,0,0,18-1.92c9.59-2.36,17.28-9.26,22.68-17.37.23-.77.44-1.56.62-2.35A35.06,35.06,0,0,0,322.62,168.62Zm-157-33.08,0-.09c.14-.4.68-2,.82-2.46.27-.85.52-1.7.78-2.56a20.42,20.42,0,0,0,1.14-5.05c.24-6.57-3.84-12.88-7.19-18.21-1.22-2-2.38-3.93-3.5-5.94-2.25-4-4.36-8.16-6.49-12.29a2.29,2.29,0,0,0-.14-.27.44.44,0,0,1-.07-.41c.07-.14.24-.15.4-.13l.19-.29c11.64,6.39,23.65,16.93,29.73,29.12C186.46,127.36,166.16,135.12,165.58,135.54Zm56.19,43.91a23.51,23.51,0,0,1-30.42-35.16,21.33,21.33,0,0,1,35.9.25,23,23,0,0,1,1.83,2.48A23.48,23.48,0,0,1,221.77,179.45Zm86.92,8.92a10.12,10.12,0,0,1-15.44-10,10.14,10.14,0,1,1,20.07,0A10.13,10.13,0,0,1,308.69,188.37Z"/>
    <path class="cls-9" d="M190.73,239.78a48.62,48.62,0,0,0,5.88,14.91,64.62,64.62,0,0,0,5.13,7.55,70.15,70.15,0,0,0,12.46-10,23.5,23.5,0,0,1-.87-8.62,21.59,21.59,0,0,1,3.09-9.18c-1.76.16-3.46.26-5.06.26-8.85,0-15.52-2.45-21.83-7.76C189.06,231.19,189.88,235.63,190.73,239.78Z"/>
    <path class="cls-9" d="M272.4,229.89c.24,1.44-1,2.56-2.27,3-1.72.53-3.49-.08-5.16-.51-2.32-.59-4.62-1.22-6.92-1.86l2.15,1.06a70.85,70.85,0,0,0,8,3.54c9.4,3.4,22.33,2.91,30.74-1.16a13.46,13.46,0,0,0,7-7.38,49.82,49.82,0,0,1-15.12,2.55,37.25,37.25,0,0,1-23.2-8.11S272.24,228.89,272.4,229.89Z"/>
    <path class="cls-9" d="M214.3,126c2.67,1.8,13.61,6.91,16.75,7.72,10.93,2.8,13.6,1,20.12-1.13,2-.64,4-1.28,6-1.92-2.07-1.69-4.46-3.54-7.72-6a50.66,50.66,0,0,0-5.15-3.32c-1.42,3.34-3.62,6.64-7.43,8.44a14.4,14.4,0,0,1-6.16,1.3,29,29,0,0,1-10.92-2.56,45.17,45.17,0,0,1-6.23-3.1A6.16,6.16,0,0,0,214.3,126Z"/>
    <path class="cls-9" d="M142.6,173.89a171.76,171.76,0,0,1,11.7-28.18,3.06,3.06,0,0,1-1.21-3.78s0-.12.11-.3c-11.46,12.56-19.1,28.12-25.46,42.13-11,24.23-16.17,44.64-15.84,62.37l.12,2.64A70.12,70.12,0,0,0,127.29,262C124.69,230.56,135.75,196.88,142.6,173.89Z"/>
    <path class="cls-9" d="M303.93,215a75.4,75.4,0,0,1-18,1.92c-3.33,0-6.66-.23-10-.46-1.46-.1-2.93-.16-4.39-.25,10.61,8,22.63,9.51,37.37,2.75a22,22,0,0,0,2.73-1.56h0a35.07,35.07,0,0,0,15-19.76C321.21,205.73,313.52,212.62,303.93,215Z"/>
    <path class="cls-9" d="M193.19,102.05c3.18-3.36,3.14-8.3,5.35-12.17,1.16,1.14,2.35,2.23,3.55,3.32a3,3,0,0,1,1.2-.25h0a3.08,3.08,0,0,1,3,3.12l0,.8c1.08.89,2.17,1.75,3.28,2.59l10.51-20.38c-1.87-.13-3.95-.24-6.27-.3-1.07,0-2.13,0-3.19,0a122.48,122.48,0,0,0-43.43,7.86,110.63,110.63,0,0,1,11.67,10.67c.53.56,1,1.12,1.53,1.67.17-1.23.32-2.47.41-3.72l.76.52L180.18,89a3.07,3.07,0,1,1,6-1.26l2.65,12.65a36.47,36.47,0,0,0,3.84,1.83A.5.5,0,0,0,193.19,102.05Z"/>
    <path class="cls-10" d="M119.2,163.32c.2.39.44.84.67,1.33a2.87,2.87,0,0,1,.8.21l7.7,3.27q1.57-3.12,3.29-6.24l-16-9.67A45.28,45.28,0,0,0,119.2,163.32Z"/>
    <path class="cls-10" d="M180.44,98.94c.86,1,1.66,1.91,2.44,2.87l-1.27-6.07-.76-.52C180.76,96.47,180.61,97.71,180.44,98.94Z"/>
    <path class="cls-10" d="M139.62,101.3l-.9.66c.08,4.05-.13,8.11.74,12.14,1.12,5.2,3.21,10.11,4.94,15.11a.52.52,0,0,1-.5.66c-4.29-.5-8.4-2.56-12.62-3.62a3,3,0,0,1,.66.4l15.32,12.4c1.79-2.05,3.67-4,5.66-5.93a3.72,3.72,0,0,0-.4-.49C145.4,125.27,141.06,114.73,139.62,101.3Z"/>
    <path class="cls-10" d="M206.19,107.3c.36-1.23.8-2.42,1.24-3.55l.13-.3,2.06-4c-1.11-.84-2.2-1.7-3.28-2.59Z"/>
    <path class="cls-9" d="M143.89,129.87c-4.28-.5-8.39-2.56-12.61-3.62a3.09,3.09,0,0,0-3.65.86,2.68,2.68,0,0,0-.44.74,3.08,3.08,0,0,0,.89,3.57l.85.69c2.47,6.44,4.1,13.24,2.24,20a.53.53,0,0,1-.51.38,20.31,20.31,0,0,1-3.19-.33l-16.12-9.73a3.07,3.07,0,1,0-3.17,5.25l7.46,4.5a45.6,45.6,0,0,0,3.56,11.11c.21.39.44.84.67,1.32a3.07,3.07,0,0,0-1.61,5.86l.14,0c-2.38.73-5.32.54-7.69.41-4.29-.26-8.66-2.11-13-1.16a50.06,50.06,0,0,0,2.84,4.5,3.06,3.06,0,0,0-1.47,5.92l8.21,2.92A45.77,45.77,0,0,1,112.7,192c1,2.18,1.58,4.44-1,5.43-3.84,1.42-8.24,1.8-11.79,3.93.15.29.32.57.47.85a3.06,3.06,0,0,0,1.12,5.51l3.87.83c.88.91,1.76,1.78,2.65,2.67a.53.53,0,0,1-.11.83c-2.75,1.92-6,2.64-9,4,2.35,5.55,5.33,10.88,7.65,16.41-.28,2.31-.49,4.6-.61,6.84-1.06-1.49-1.82-2.61-2-3-5.45-10.72-8.48-19.14-10.14-28.15a100.76,100.76,0,0,1,1.15-40.74A110.27,110.27,0,0,1,108.13,135a113.51,113.51,0,0,1,25.24-28.9c1.74-1.43,3.53-2.78,5.35-4.11.09,4.06-.13,8.12.74,12.15,1.12,5.2,3.21,10.11,4.94,15.11A.52.52,0,0,1,143.89,129.87Z"/>
    <path class="cls-10" d="M131.17,152.15a.53.53,0,0,1-.51.38,21.16,21.16,0,0,1-3.18-.33l7.23,4.36a128.59,128.59,0,0,1,8.66-12.77l-14.44-11.68C131.39,138.56,133,145.35,131.17,152.15Z"/>
    <path class="cls-10" d="M108,211.19a.54.54,0,0,1-.1.83c-2.75,1.93-6,2.64-9,4,2.34,5.53,5.33,10.86,7.64,16.4a137.08,137.08,0,0,1,4.82-22.63l-6-1.29C106.19,209.42,107.09,210.31,108,211.19Z"/>
    <path class="cls-10" d="M110.71,171c-4.29-.25-8.67-2.1-13-1.15a48.68,48.68,0,0,0,2.84,4.5,3,3,0,0,1,.59.14l20.71,7.38.26-.6c1.13-2.48,2.3-5,3.52-7.56l-7.28-3.1C116,171.28,113.08,171.09,110.71,171Z"/>
    <path class="cls-10" d="M200.22,96a3,3,0,0,1,1.87-2.78c-1.2-1.09-2.39-2.18-3.55-3.32-2.21,3.87-2.17,8.81-5.35,12.17a.5.5,0,0,1-.51.13,36.47,36.47,0,0,1-3.84-1.83l2.54,12.12c1.5,1.17,2.29,1.76,3.93,1.71,1.72-.24,3.26-.52,4.65-.83Z"/>
    <path class="cls-10" d="M112.71,192c.94,2.17,1.57,4.44-1.06,5.42-3.84,1.43-8.24,1.8-11.79,3.93.15.29.31.57.47.85a3.07,3.07,0,0,1,2.41-.49l10.42,2.23q2.64-7.93,6.26-16.46l-12.09-4.31A45.22,45.22,0,0,1,112.71,192Z"/>
    <path class="cls-9" d="M229.09,147a24.26,24.26,0,0,0-1.84-2.49l0,0a21.36,21.36,0,1,1-35.91-.27A23.51,23.51,0,1,0,229.09,147Z"/>
    <path class="cls-7" d="M221.84,142.8a6.9,6.9,0,1,0-2.14,9.52A6.9,6.9,0,0,0,221.84,142.8Z"/>
    <path class="cls-7" d="M207.52,155.13a3,3,0,1,0,4.1.92A3,3,0,0,0,207.52,155.13Z"/>
    <path class="cls-9" d="M308.7,188.38a10.14,10.14,0,0,0,4.61-10,10.13,10.13,0,0,1-18.6,4,10,10,0,0,1-1.46-4,10.14,10.14,0,0,0,15.45,10Z"/>
    <path class="cls-7" d="M253.76,32.36c-.55-.49-1.16-1.05-1.75-1.66l-4.37,8.47h0c-1.15,2.22-.68,3.16,3.32,6.68a36.24,36.24,0,0,1,4.33,4.28l2.22-9.43C258.42,36.83,256.77,35.1,253.76,32.36Z"/>
    <polygon class="cls-7" points="261.88 11.57 261.88 11.57 261.88 11.57 261.88 11.57"/>
    <path class="cls-7" d="M263.82,13.25l.13.13,1.55-6.57c.05-.19.11-.45-.33-.61a.45.45,0,0,0-.65.25L262,11.29A16.79,16.79,0,0,0,263.82,13.25Z"/>
    <path class="cls-7" d="M224.94,83.16h0c-1.2,2.33,2,5.21,7.38,9.67,3.61,3,7.66,6.36,10.45,10.41l3.29-13.95c1.83-7.79-2.64-12.21-7.37-16.88a38,38,0,0,1-5.17-5.88Z"/>
    <path class="cls-5" d="M222.18,122.88c5.31,2.2,9.38,2.66,12.11,1.37,2.35-1.11,4-3.63,5.45-8.18,1.76-7.65-4.9-13.17-11.34-18.51a50.25,50.25,0,0,1-7.33-6.9l-8,15.46C210.67,112.39,208.87,117.37,222.18,122.88Z"/>
    <path class="cls-5" d="M238.22,57.43h0C236.38,61,238.07,63.17,243,68a45,45,0,0,1,6.34,7.31l3-12.83c1.41-6-1.77-8.82-5.46-12.06a31.73,31.73,0,0,1-3.39-3.3Z"/>
    <path class="cls-5" d="M257.88,27.82c.68.61,1.44,1.3,2.18,2.09l2-8.5c.22-.95-.92-2.17-2.56-3.79-.15-.16-.32-.32-.49-.49l-3.38,6.56h0C255,24.86,255,25.2,257.88,27.82Z"/>
    <path class="cls-9" d="M165.58,135.54l0-.09c.14-.4.68-2,.82-2.46.27-.85.52-1.7.78-2.56a20.42,20.42,0,0,0,1.14-5.05c.24-6.57-3.84-12.88-7.19-18.21-1.22-2-2.38-3.93-3.5-5.94-2.25-4-4.36-8.16-6.49-12.29a2.29,2.29,0,0,0-.14-.27.44.44,0,0,1-.07-.41c.07-.14.24-.15.4-.13l-.15.22c10,8.13,18.77,18.09,23.89,30C178.59,126.46,165.58,135.54,165.58,135.54Z"/>
  </g>
</svg>
