<svg xmlns="http://www.w3.org/2000/svg" viewBox="0 0 1569.59 618.85">
  <defs>
    <style>
      .cls-1 {
        fill: #ffd200;
      }

      .cls-2 {
        fill: #1e2856;
        stroke: #000;
      }

      .cls-2, .cls-3, .cls-4 {
        stroke-miterlimit: 10;
      }

      .cls-3, .cls-4 {
        fill: none;
        stroke: #1e2856;
        stroke-width: 16px;
      }

      .cls-3 {
        stroke-linecap: square;
      }

      .cls-5 {
        fill: #fff;
      }
    </style>
  </defs>
  <title>padoca</title>
  <g id="Layer_1" data-name="Layer 1">
    <circle class="cls-1" cx="309.43" cy="309.43" r="309.43"/>
    <g>
      <path class="cls-2" d="M532.21,296.2h-64q.9-10.54.91-21.37a9.66,9.66,0,0,0-9.66-9.66H143.93a9.65,9.65,0,0,0-9.65,9.66c0,82.26,39.62,153.35,96.66,186.14H158a9.66,9.66,0,0,0,0,19.32H445.4a9.66,9.66,0,1,0,0-19.32H372.49a167.87,167.87,0,0,0,37-29.07c31.82,15.9,63.93,14.75,89.55,0C554.1,400.06,556,317.46,532.21,296.2ZM301.71,461c-79.09,0-143.91-78.31-147.92-176.48H449.63C445.62,382.66,380.81,461,301.71,461Zm187.66-45.85c-19.94,11.52-43.31,12-66.76,1.63,21.47-27.52,36.8-62.3,43.2-101h53.51C532.11,327.16,534.24,389.23,489.37,415.12Z"/>
      <g id="_14" data-name="14">
        <line class="cls-3" x1="261.98" y1="389.18" x2="341.57" y2="389.15"/>
        <line class="cls-3" x1="261.97" y1="367.61" x2="341.56" y2="367.58"/>
        <line class="cls-3" x1="264.4" y1="346.03" x2="349.36" y2="346"/>
        <line class="cls-3" x1="285.35" y1="410.74" x2="318.22" y2="410.73"/>
        <path class="cls-4" d="M349,346l-94.56,0v-3.32c0-25-7.11-49.82-21.69-70.17A84.41,84.41,0,0,1,217,221c1.13-43.43,35.89-79.59,79.25-82.3a84.73,84.73,0,0,1,75.67,131.94,132.23,132.23,0,0,0-21.45,53.27v1.33"/>
        <path class="cls-4" d="M285.78,346s0-103.73,0-104.65c-.6-12.49-1.59-29.5-17.68-29.49-10.26,0-18.14,6.71-18.14,18.81,0,18.34,22.65,17.11,35.82,16.45h12.9l38.36-.41c10.07-.27,16.43-5.5,16.43-16.08,0-12.1-7.89-18.8-18.16-18.8-16.08,0-17,17-17.65,29.51L318.22,346"/>
      </g>
    </g>
  </g>
  <g id="Layer_4" data-name="Layer 4">
    <path class="cls-5" d="M864.05,164.25c-4.62-9.86-24.32-40.83-51.47-45.45s-66.76,19.1-66.76,19.1l12.47,15.49L703,283.27l29.76,26.35s11.47-36.6,24.74-67.56c13.27,8,22.32,8.24,38,3.21C847,233,868.68,174.09,864.05,164.25ZM769.76,212.9,794.49,156s39.21-11.46,43.83-4S798.71,214.51,769.76,212.9Z"/>
    <path class="cls-5" d="M968.37,148.92c-.85-4.25-17-15.06-29.92-20.26a23.41,23.41,0,0,0-19.49.84c-81.4,41.69-105.06,140.62-108.63,157.89a3.26,3.26,0,0,0,1.88,3.64l30.38,13.4a3.09,3.09,0,0,0,4.22-1.95L858.37,263a3.39,3.39,0,0,1,2.42-2.37l38.32-9.3a3.38,3.38,0,0,1,4,4.07l-8.48,43.05a2.54,2.54,0,0,0,1.35,2.77l31.93,16.5a1.58,1.58,0,0,0,2.34-1.38C927.37,277.92,970.47,159.42,968.37,148.92ZM913.3,210.66a5.47,5.47,0,0,1-4.87,3.44l-23,.77a1.54,1.54,0,0,1-1.28-2.48c8.09-10.49,38.46-49.42,42.46-47.69S917.59,199.87,913.3,210.66Z"/>
    <path class="cls-5" d="M1463,148.92c-.85-4.25-17-15.06-29.92-20.26a23.41,23.41,0,0,0-19.49.84c-81.4,41.69-105.06,140.62-108.63,157.89a3.25,3.25,0,0,0,1.88,3.64l30.38,13.4a3.09,3.09,0,0,0,4.22-1.95L1353,263a3.37,3.37,0,0,1,2.42-2.37l38.32-9.3a3.39,3.39,0,0,1,4,4.07l-8.48,43.05a2.54,2.54,0,0,0,1.35,2.77l31.93,16.5a1.58,1.58,0,0,0,2.34-1.38C1422,277.92,1465.11,159.42,1463,148.92ZM1408,210.66a5.48,5.48,0,0,1-4.88,3.44l-23,.77a1.54,1.54,0,0,1-1.27-2.48c8.09-10.49,38.46-49.42,42.46-47.69S1412.24,199.87,1408,210.66Z"/>
    <path class="cls-5" d="M1474,357.16c-.85-4.26-17-15.07-29.92-20.27a23.4,23.4,0,0,0-19.5.85c-81.4,41.69-105,140.62-108.62,157.88a3.26,3.26,0,0,0,1.88,3.65l30.38,13.4a3.1,3.1,0,0,0,4.22-1.95L1364,471.23a3.39,3.39,0,0,1,2.42-2.38l38.32-9.3a3.39,3.39,0,0,1,4,4.08l-8.49,43a2.57,2.57,0,0,0,1.36,2.78l31.93,16.49a1.58,1.58,0,0,0,2.34-1.37C1433,486.15,1476.1,367.65,1474,357.16Zm-55.07,61.73a5.44,5.44,0,0,1-4.88,3.44l-23,.77a1.54,1.54,0,0,1-1.28-2.47c8.1-10.5,38.47-49.43,42.47-47.69S1423.23,408.11,1418.94,418.89Z"/>
    <path class="cls-5" d="M1290.63,215.69a6.28,6.28,0,0,1-2.16-7.74c5-11.2,16.79-39.13,13.29-49.16-4.42-12.66-49.66,40.82-55.9,51.08s-34.58,70-20.71,79.82c11.75,8.35,48.89-25.14,60-35.58a5.75,5.75,0,0,1,6.94-.73l24.31,14.74a4.23,4.23,0,0,1,1.1,6.29c-6.7,8.28-23.85,27.62-42.46,34.18-23.93,8.45-30.48,7.64-53.64-7.23s-52.53-27.75-10.91-102.35,74.4-70,89.08-57.31c13.87,9.45,20.11,8.45,28.15,16.69s16.89,25.54-7.24,69.57l-1.49,2.41a3.85,3.85,0,0,1-5.44,1.14Z"/>
    <path class="cls-5" d="M1032.72,134.7a86.77,86.77,0,0,0-55.55,13.86,2.23,2.23,0,0,0-.58,3.13l4.42,6.36a4.26,4.26,0,0,1,.36,4.25L928,277.52a6.5,6.5,0,0,0,.62,6.52c3.55,4.88,10.47,14.28,14.52,18.64,5.62,6,15,20.58,52.39,5.82,77.14-31.61,92.73-83.16,95.63-101.24S1067.22,137.82,1032.72,134.7ZM974.2,275.31a1.51,1.51,0,0,1-1.9-2l41-95.52a11.74,11.74,0,0,1,7.72-6.71c11.45-3.09,37.29-9,43.91-1.7C1073.38,178.74,1044.93,249.2,974.2,275.31Z"/>
    <path class="cls-5" d="M1130.33,343.67a84,84,0,0,0-53.74,13.4,2.16,2.16,0,0,0-.55,3l4.27,6.15a4.14,4.14,0,0,1,.35,4.12L1029,481.81a6.28,6.28,0,0,0,.6,6.3c3.43,4.72,10.13,13.82,14.05,18,5.43,5.83,14.47,19.91,50.67,5.63,74.6-30.57,89.69-80.43,92.5-97.92S1163.7,346.68,1130.33,343.67Zm-56.61,136a1.46,1.46,0,0,1-1.83-1.95l39.67-92.39a11.35,11.35,0,0,1,7.46-6.5c11.08-3,36.06-8.73,42.47-1.64C1169.66,386.27,1142.14,454.42,1073.72,479.67Z"/>
    <path class="cls-5" d="M751.47,343.67a84,84,0,0,0-53.74,13.4,2.16,2.16,0,0,0-.55,3l4.27,6.15a4.16,4.16,0,0,1,.35,4.12L650.15,481.81a6.26,6.26,0,0,0,.6,6.3c3.43,4.72,10.12,13.82,14,18,5.43,5.83,14.48,19.91,50.68,5.63,74.6-30.57,89.68-80.43,92.49-97.92S784.84,346.68,751.47,343.67Zm-56.61,136a1.45,1.45,0,0,1-1.83-1.95l39.66-92.39a11.39,11.39,0,0,1,7.47-6.5c11.08-3,36.06-8.73,42.47-1.64C790.8,386.27,763.28,454.42,694.86,479.67Z"/>
    <path class="cls-5" d="M1185,147.82c-51.57-42.83-82.64,9.35-99.83,36.8-23.27,37.16-41.32,89.58,7.84,119.43,48.56,29.5,78.72.61,107.07-51S1213.2,171.21,1185,147.82Zm-80.44,144.57a5.93,5.93,0,0,1-7.41-4.59c-6.68-33.8,44.52-135.7,77.9-132a7.32,7.32,0,0,1,6.3,6.06C1193.48,231,1130.49,285.16,1104.59,292.39Z"/>
    <path class="cls-5" d="M830.09,361.8l-4.8-9a2,2,0,0,1,1.35-2.87c11.81-2.44,61-11.76,78.25-2.06,10.39,12.28,15.44,22.75,17.64,28.3a2.83,2.83,0,0,1-2.89,3.85c-11.88-1.07-44.79-3.52-57,.79A6.63,6.63,0,0,0,859,384c-4,7.56-6.83,13.08-8.18,15.69a1.12,1.12,0,0,0,1,1.64c6.4-.07,27.28.17,33.72,6.28,5.9,5.58,14.07,19.91,17.49,26.16a1.75,1.75,0,0,1-1.71,2.59c-9.28-.95-37-2.61-70.89,6.29a8.93,8.93,0,0,0-5.92,5c-7.92,17.95-11.85,27-13.53,30.87a1.51,1.51,0,0,0,1.58,2.09c9.72-1.28,43.42-5.44,50.46-2.87,6.51,2.39,17.15,20.17,20.76,27.2a2.56,2.56,0,0,1-1.85,3.7c-11.49,2-50.59,6.76-64.77,9a10.67,10.67,0,0,1-9.64-3.46l-23.32-28.61c-4.67-5.25-5-12.45-3.2-19.23,5-18.67,18.33-58.39,48.84-101.61A2.82,2.82,0,0,0,830.09,361.8Z"/>
    <path class="cls-5" d="M1219.32,361.8l-4.79-9a2,2,0,0,1,1.34-2.87c11.82-2.44,61-11.76,78.25-2.06,10.39,12.28,15.44,22.75,17.64,28.3a2.83,2.83,0,0,1-2.89,3.85c-11.88-1.07-44.78-3.52-57,.79a6.63,6.63,0,0,0-3.62,3.17c-4,7.56-6.83,13.08-8.18,15.69a1.13,1.13,0,0,0,1,1.64c6.39-.07,27.27.17,33.71,6.28,5.9,5.58,14.07,19.91,17.49,26.16a1.75,1.75,0,0,1-1.71,2.59c-9.28-.95-37-2.61-70.89,6.29a9,9,0,0,0-5.92,5c-7.92,17.95-11.85,27-13.53,30.87a1.51,1.51,0,0,0,1.58,2.09c9.72-1.28,43.42-5.44,50.46-2.87,6.52,2.39,17.15,20.17,20.76,27.2a2.56,2.56,0,0,1-1.85,3.7c-11.49,2-50.59,6.76-64.77,9a10.67,10.67,0,0,1-9.64-3.46l-23.32-28.61c-4.66-5.25-5-12.45-3.2-19.23,5-18.67,18.34-58.39,48.85-101.61A2.79,2.79,0,0,0,1219.32,361.8Z"/>
    <path class="cls-5" d="M1045.49,345l23.41,16.75a3.66,3.66,0,0,1,1.26,4.4c-7.72,18.63-52.69,128.06-53.28,149.48a.94.94,0,0,1-1.51.71c-29-22-27.78-21.54-27.78-21.54-10-17.08,47.32-133.32,55.34-149.18A1.73,1.73,0,0,1,1045.49,345Z"/>
    <path class="cls-5" d="M1333,345l23.41,16.75a3.67,3.67,0,0,1,1.26,4.4c-7.72,18.63-52.7,128.06-53.28,149.48a.94.94,0,0,1-1.51.71c-28.95-22-27.79-21.54-27.79-21.54-10-17.08,47.33-133.32,55.35-149.18A1.73,1.73,0,0,1,1333,345Z"/>
    <path class="cls-5" d="M1527.92,417.53l25,13.07a4.41,4.41,0,0,0,6-2c5.78-12.14,20.5-48.34.35-66.5-13-11.71-30.1-15.85-43.26-17.16a45.66,45.66,0,0,0-40.23,16.85,30.38,30.38,0,0,0-3.74,6.53,56.35,56.35,0,0,0-4.24,29.47c1.72,14.43,6,29.38,24.21,54.19,2.36,3.22,4.86,6.22,7.26,9a27.35,27.35,0,0,1-1.44,37.14c-6.43,6.37-14,11.62-20.38,9.83-18.7-5.22-8.88-28.74-7-35.25a116.13,116.13,0,0,1,6.08-16.93,6.28,6.28,0,0,0-2.89-8.44l-20.11-10a7.28,7.28,0,0,0-10.27,4.89c-2.25,9.71-27,57.68,31.23,79.4s83-35.78,65-57.52c-14.81-18-31.27-31.76-36.1-47.75s2.72-34.08,7.24-40.11,13.47-11.74,19.62-9.84c7.07,2.18,4.51,21.6-.92,34-2,4.48-3.3,7.66-4.2,9.89A5.72,5.72,0,0,0,1527.92,417.53Z"/>
  </g>
</svg>
